<svg width="713" height="258" viewBox="0 0 713 258" fill="none" xmlns="http://www.w3.org/2000/svg">
<path fill-rule="evenodd" clip-rule="evenodd" d="M36.7539 234.364C35.4043 236.114 33.6834 237.545 31.5889 238.653C28.7952 240.14 25.4048 240.894 21.4199 240.92L12.2012 240.978L12.3076 257.797L1.34082 257.866L1.19336 234.589L36.7539 234.364ZM165.847 235.599C165.876 240.158 164.937 244.083 163.033 247.371C161.129 250.642 158.494 253.174 155.128 254.968C151.762 256.746 147.9 257.649 143.544 257.676C138.681 257.707 134.402 256.662 130.708 254.541C127.013 252.403 124.123 249.356 122.038 245.401C120.306 242.075 119.29 238.222 118.984 233.844L130.132 233.773C130.359 236.237 130.883 238.404 131.707 240.273C132.821 242.799 134.387 244.723 136.404 246.045C138.422 247.349 140.799 247.993 143.534 247.975C146.016 247.96 148.132 247.507 149.883 246.618C151.65 245.712 152.993 244.446 153.911 242.819C154.8 241.273 155.259 239.463 155.291 237.389L144.151 237.46L144.127 233.685L165.834 233.548L165.847 235.599ZM58.4873 257.505L47.5205 257.574L47.373 234.297L58.3398 234.227L58.4873 257.505ZM78.4775 257.378L67.5098 257.447L67.3633 234.171L78.3301 234.101L78.4775 257.378ZM110.898 257.173L101.426 257.233L85.1885 234.057L96.6143 233.985L99.4033 237.996L99.8594 237.993L99.834 233.965L110.751 233.896L110.898 257.173ZM284.341 232.799C284.08 237.321 283.064 241.254 281.285 244.596C279.183 248.578 276.297 251.627 272.63 253.744C268.979 255.844 264.865 256.909 260.289 256.938C255.679 256.967 251.536 255.946 247.858 253.876C244.181 251.805 241.266 248.792 239.113 244.838C237.307 241.52 236.249 237.608 235.934 233.104L247.07 233.034C247.29 235.558 247.81 237.758 248.63 239.635C249.743 242.144 251.292 244.043 253.275 245.331C255.259 246.618 257.577 247.254 260.228 247.237C262.878 247.22 265.188 246.556 267.155 245.244C269.123 243.931 270.638 242.013 271.703 239.49C272.512 237.602 273.013 235.395 273.204 232.869L284.341 232.799ZM226.141 233.167C224.791 234.917 223.069 236.347 220.975 237.455C218.181 238.941 214.792 239.697 210.808 239.722L201.588 239.781L201.694 256.599L190.727 256.669L190.579 233.391L226.141 233.167ZM391.034 234.175C391.063 238.735 390.126 242.659 388.222 245.947C386.317 249.218 383.682 251.75 380.316 253.545C376.95 255.322 373.089 256.225 368.732 256.253C363.869 256.283 359.59 255.238 355.896 253.117C352.201 250.979 349.312 247.932 347.227 243.977C345.494 240.651 344.479 236.798 344.173 232.421L355.32 232.349C355.547 234.813 356.071 236.98 356.895 238.849C358.008 241.375 359.574 243.3 361.592 244.621C363.609 245.925 365.986 246.569 368.722 246.551C371.204 246.536 373.32 246.083 375.07 245.194C376.837 244.288 378.181 243.022 379.1 241.395C379.988 239.85 380.448 238.039 380.479 235.965L369.339 236.036L369.315 232.261L391.021 232.124L391.034 234.175ZM303.666 255.954L292.698 256.023L292.551 232.747L303.519 232.677L303.666 255.954ZM336.086 255.749L326.613 255.809L310.377 232.633L321.802 232.561L324.592 236.571L325.047 236.569L325.021 232.542L335.938 232.472L336.086 255.749ZM426.553 255.177L415.914 255.245L415.768 231.967L426.405 231.9L426.553 255.177ZM569.715 230.994C570.379 231.818 570.939 232.718 571.39 233.694C572.177 235.361 572.586 237.275 572.616 239.436C572.619 242.611 571.826 245.368 570.237 247.709C568.665 250.032 566.379 251.845 563.382 253.147C560.401 254.432 556.799 255.089 552.578 255.116C548.391 255.142 544.739 254.523 541.624 253.259C538.526 251.996 536.099 250.112 534.344 247.607C532.605 245.085 531.682 241.957 531.574 238.226L542.188 238.16C542.317 239.898 542.824 241.347 543.709 242.507C544.611 243.649 545.807 244.512 547.297 245.093C548.803 245.658 550.503 245.934 552.394 245.922C554.251 245.91 555.861 245.63 557.226 245.081C558.607 244.532 559.675 243.774 560.429 242.806C561.182 241.839 561.555 240.73 561.547 239.48C561.539 238.315 561.187 237.339 560.49 236.549C559.81 235.76 558.809 235.092 557.488 234.543C556.185 233.994 554.585 233.497 552.691 233.053L547.034 231.67C546.365 231.511 545.717 231.337 545.091 231.15L569.715 230.994ZM472.144 254.889L461.505 254.956L461.358 231.679L471.996 231.612L472.144 254.889ZM528.29 254.534L516.537 254.608L512.623 242.804L493.894 242.923L490.12 254.775L478.368 254.849L486.257 231.522L497.546 231.451L496.625 234.344L509.789 234.26L508.834 231.379L520.119 231.307L528.29 254.534ZM447.649 254.791L440.405 254.837L431.071 231.871L441.014 231.808L443.618 238.049L444.225 238.045L446.751 231.771L456.728 231.709L447.649 254.791ZM604.832 254.049L593.992 254.119L593.845 230.841L604.686 230.773L604.832 254.049ZM660.749 232.268L638.561 232.409L638.639 244.794L662.727 244.641L662.783 253.683L627.729 253.905L627.582 230.629L660.737 230.419L660.749 232.268ZM705.896 230.133C704.709 231.309 703.291 232.29 701.642 233.073C701.488 233.146 701.331 233.217 701.174 233.287L712.307 253.371L700.199 253.447L690.259 235.121L682.253 235.172L682.369 253.559L671.401 253.629L671.254 230.352L705.896 230.133ZM34.874 172.193C35.982 173.244 36.9172 174.451 37.6758 175.815C39.1614 178.44 39.9147 181.475 39.9365 184.92C39.9582 188.364 39.2347 191.408 37.7656 194.051C36.2964 196.695 34.1561 198.76 31.3457 200.247C28.5521 201.733 25.1625 202.49 21.1777 202.515L11.958 202.574L12.0645 219.391L1.09766 219.461L0.799805 172.408L34.874 172.193ZM58.2441 219.099L47.2773 219.169L46.9795 172.116L57.9463 172.047L58.2441 219.099ZM110.655 218.768L101.183 218.828L78.4082 186.323L78.0283 186.326L78.2344 218.973L67.2676 219.043L66.9697 171.99L79.9033 171.908L99.1602 199.59L99.6162 199.588L99.4404 171.785L110.357 171.715L110.655 218.768ZM275.518 170.672C277.641 172.464 279.423 174.678 280.859 177.317C283.029 181.272 284.131 186.077 284.167 191.734C284.203 197.391 283.161 202.21 281.042 206.192C278.94 210.173 276.054 213.223 272.387 215.34C268.736 217.44 264.622 218.504 260.046 218.533C255.436 218.562 251.293 217.541 247.615 215.47C243.938 213.4 241.022 210.388 238.869 206.433C236.717 202.479 235.623 197.681 235.587 192.042C235.551 186.385 236.585 181.565 238.688 177.584C240.091 174.926 241.841 172.69 243.935 170.871L275.518 170.672ZM383.676 169.987C385.312 171.391 386.677 173.017 387.771 174.868C389.034 176.987 389.852 179.33 390.223 181.894L379.078 181.965C378.716 180.734 378.211 179.648 377.563 178.707C376.916 177.748 376.125 176.942 375.192 176.29C374.276 175.62 373.225 175.112 372.041 174.765C370.874 174.418 369.581 174.249 368.163 174.257C365.512 174.274 363.186 174.948 361.186 176.277C359.201 177.607 357.659 179.533 356.561 182.056C355.462 184.562 354.923 187.623 354.946 191.236C354.969 194.849 355.538 197.919 356.651 200.445C357.765 202.971 359.332 204.894 361.35 206.215C363.367 207.52 365.743 208.162 368.479 208.145C370.961 208.129 373.078 207.678 374.828 206.789C376.595 205.883 377.938 204.616 378.856 202.989C379.745 201.443 380.205 199.634 380.236 197.56L369.096 197.631L369.044 189.373L390.75 189.236L390.792 195.771C390.821 200.33 389.883 204.254 387.979 207.542C386.074 210.813 383.439 213.346 380.073 215.14C376.707 216.918 372.846 217.82 368.489 217.847C363.626 217.878 359.347 216.833 355.652 214.712C351.958 212.574 349.067 209.527 346.982 205.572C344.914 201.6 343.863 196.878 343.828 191.408C343.802 187.203 344.386 183.45 345.581 180.15C346.793 176.833 348.498 174.019 350.695 171.709C351.206 171.171 351.738 170.664 352.289 170.186L383.676 169.987ZM335.843 217.344L326.37 217.404L303.596 184.899L303.216 184.902L303.423 217.549L292.455 217.619L292.157 170.566L305.091 170.484L324.349 198.167L324.805 198.164L324.629 170.361L335.545 170.292L335.843 217.344ZM620.199 172.715L604.318 172.815L604.59 215.645L593.749 215.714L593.479 172.883L577.597 172.984L577.569 168.761L620.173 168.492L620.199 172.715ZM662.168 172.449L638.183 172.601L638.261 184.961L660.448 184.821L660.506 193.862L638.317 194.003L638.396 206.389L662.483 206.237L662.54 215.279L627.486 215.501L627.188 168.448L662.142 168.226L662.168 172.449ZM705.247 167.954C706.22 168.883 707.049 169.939 707.733 171.123C709.218 173.646 709.971 176.622 709.993 180.049C710.015 183.494 709.292 186.462 707.821 188.954C706.351 191.428 704.21 193.334 701.398 194.669C701.245 194.742 701.088 194.813 700.931 194.882L712.063 214.965L699.957 215.042L690.016 196.715L682.01 196.766L682.126 215.155L671.158 215.224L670.861 168.172L705.247 167.954ZM259.771 174.943C257.119 174.96 254.81 175.624 252.843 176.937C250.875 178.25 249.351 180.167 248.27 182.69C247.205 185.213 246.684 188.307 246.707 191.971C246.73 195.635 247.29 198.722 248.387 201.231C249.5 203.74 251.049 205.638 253.032 206.925C255.016 208.213 257.334 208.848 259.984 208.832C262.635 208.815 264.945 208.15 266.912 206.838C268.879 205.525 270.396 203.608 271.461 201.086C272.543 198.563 273.071 195.468 273.048 191.804C273.025 188.14 272.456 185.054 271.343 182.545C270.246 180.036 268.706 178.137 266.722 176.849C264.738 175.562 262.421 174.926 259.771 174.943ZM11.793 176.485L11.9023 193.785L19.3496 193.738C21.46 193.725 23.1975 193.351 24.5605 192.616C25.9402 191.864 26.9637 190.835 27.6309 189.531C28.3146 188.21 28.6504 186.696 28.6396 184.991C28.6287 183.269 28.2736 181.768 27.5732 180.489C26.8897 179.193 25.8537 178.194 24.4648 177.494C23.0758 176.777 21.3168 176.425 19.1895 176.438L11.793 176.485ZM681.854 172.249L681.954 187.952L689.4 187.905C691.494 187.892 693.231 187.593 694.612 187.01C695.993 186.428 697.017 185.561 697.686 184.409C698.371 183.256 698.709 181.826 698.698 180.121C698.687 178.399 698.331 176.949 697.631 175.771C696.948 174.594 695.904 173.705 694.499 173.106C693.11 172.49 691.361 172.188 689.25 172.202L681.854 172.249ZM21.2412 105.276C25.1755 105.251 28.5328 105.981 31.3115 107.466C34.09 108.935 36.2138 110.99 37.6826 113.632C39.1683 116.256 39.9216 119.291 39.9434 122.736C39.9651 126.181 39.2416 129.224 37.7725 131.868C36.3032 134.511 34.1631 136.577 31.3525 138.064C28.5589 139.551 25.1694 140.307 21.1846 140.332L11.9648 140.39L12.0713 157.208L1.10449 157.277L0.776367 105.405L21.2412 105.276ZM142.743 103.799C145.681 103.78 148.42 104.193 150.958 105.038C153.496 105.866 155.749 107.051 157.718 108.592C159.703 110.133 161.328 111.972 162.591 114.108C163.854 116.228 164.671 118.57 165.042 121.134L153.897 121.205C153.535 119.974 153.029 118.888 152.382 117.947C151.734 116.989 150.944 116.183 150.012 115.53C149.096 114.86 148.045 114.353 146.86 114.006C145.693 113.658 144.401 113.489 142.982 113.498C140.331 113.514 138.005 114.188 136.004 115.517C134.02 116.847 132.478 118.774 131.38 121.297C130.281 123.803 129.744 126.863 129.767 130.476C129.789 134.09 130.357 137.159 131.471 139.685C132.584 142.211 134.15 144.134 136.168 145.456C138.186 146.76 140.562 147.404 143.298 147.386C145.78 147.371 147.896 146.918 149.646 146.029C151.414 145.123 152.757 143.856 153.676 142.229C154.564 140.684 155.023 138.874 155.055 136.8L143.915 136.871L143.863 128.614L165.569 128.476L165.61 135.011C165.639 139.57 164.702 143.494 162.798 146.782C160.894 150.053 158.258 152.585 154.893 154.38C151.527 156.157 147.665 157.06 143.309 157.088C138.446 157.118 134.166 156.073 130.472 153.952C126.777 151.814 123.887 148.767 121.802 144.812C119.734 140.84 118.682 136.119 118.647 130.648C118.621 126.444 119.205 122.691 120.4 119.39C121.612 116.073 123.316 113.259 125.514 110.949C127.711 108.638 130.276 106.874 133.206 105.657C136.136 104.439 139.316 103.82 142.743 103.799ZM58.251 156.916L47.2842 156.985L46.9561 105.113L57.9238 105.044L58.251 156.916ZM110.662 156.585L101.189 156.644L78.415 124.139L78.0352 124.141L78.2422 156.79L67.2744 156.859L66.9463 104.987L76.5713 104.925L99.168 137.407L99.624 137.404L99.418 104.781L110.334 104.713L110.662 156.585ZM259.716 103.058C264.292 103.029 268.419 104.05 272.097 106.121C275.791 108.174 278.714 111.179 280.866 115.133C283.036 119.088 284.139 123.894 284.175 129.55C284.211 135.207 283.168 140.026 281.049 144.007C278.946 147.989 276.061 151.039 272.394 153.156C268.743 155.256 264.629 156.32 260.053 156.349C255.443 156.378 251.299 155.357 247.622 153.287C243.945 151.216 241.03 148.203 238.877 144.249C236.724 140.294 235.63 135.497 235.595 129.857C235.559 124.201 236.592 119.382 238.694 115.4C240.797 111.419 243.674 108.378 247.325 106.278C250.976 104.161 255.106 103.087 259.716 103.058ZM210.628 104.078C214.562 104.053 217.919 104.784 220.697 106.269C223.476 107.738 225.6 109.792 227.069 112.434C228.555 115.059 229.308 118.094 229.33 121.539C229.352 124.983 228.628 128.027 227.159 130.671C225.69 133.314 223.55 135.379 220.739 136.866C217.946 138.353 214.556 139.109 210.571 139.134L201.352 139.192L201.458 156.01L190.49 156.08L190.163 104.208L210.628 104.078ZM367.932 102.375C370.87 102.356 373.608 102.769 376.146 103.614C378.685 104.442 380.938 105.628 382.906 107.169C384.892 108.71 386.516 110.548 387.779 112.684C389.042 114.804 389.859 117.146 390.229 119.711L379.085 119.781C378.723 118.551 378.218 117.465 377.57 116.523C376.923 115.565 376.132 114.759 375.199 114.106C374.283 113.437 373.233 112.929 372.049 112.582C370.881 112.234 369.588 112.065 368.17 112.074C365.519 112.091 363.193 112.764 361.192 114.093C359.208 115.423 357.667 117.35 356.568 119.873C355.47 122.379 354.931 125.439 354.954 129.052C354.977 132.666 355.546 135.736 356.659 138.261C357.773 140.787 359.338 142.711 361.355 144.032C363.373 145.336 365.75 145.98 368.485 145.963C370.968 145.947 373.084 145.494 374.835 144.605C376.602 143.699 377.945 142.432 378.863 140.805C379.752 139.259 380.211 137.45 380.242 135.376L369.104 135.447L369.051 127.19L390.757 127.052L390.799 133.588C390.828 138.147 389.89 142.07 387.985 145.358C386.081 148.629 383.446 151.161 380.08 152.956C376.714 154.733 372.853 155.636 368.496 155.664C363.633 155.694 359.355 154.649 355.66 152.528C351.965 150.39 349.075 147.343 346.99 143.388C344.922 139.416 343.871 134.694 343.836 129.223C343.809 125.019 344.393 121.267 345.588 117.966C346.8 114.649 348.505 111.835 350.702 109.525C352.9 107.215 355.464 105.451 358.395 104.233C361.325 103.016 364.504 102.396 367.932 102.375ZM335.85 155.161L326.377 155.22L303.604 122.715L303.224 122.717L303.43 155.366L292.463 155.435L292.135 103.563L301.76 103.502L324.355 135.983L324.812 135.98L324.605 103.357L335.522 103.289L335.85 155.161ZM471.907 154.3L461.27 154.368L461.056 120.605L460.626 120.608L447.413 154.202L440.17 154.248L426.533 120.697L426.103 120.7L426.316 154.589L415.679 154.656L415.351 102.784L428.876 102.698L443.382 137.46L443.989 137.456L458.054 102.513L471.579 102.428L471.907 154.3ZM552.132 101.21C555.982 101.185 559.346 101.823 562.225 103.122C565.12 104.421 567.378 106.238 568.997 108.575C570.616 110.912 571.461 113.626 571.531 116.715L561.02 116.782C560.804 114.74 559.924 113.158 558.381 112.037C556.837 110.915 554.748 110.362 552.114 110.379C550.324 110.39 548.814 110.653 547.585 111.168C546.355 111.665 545.414 112.355 544.761 113.237C544.125 114.119 543.81 115.118 543.817 116.232C543.79 117.161 543.989 117.97 544.415 118.66C544.858 119.349 545.462 119.945 546.225 120.447C546.987 120.932 547.869 121.356 548.867 121.721C549.866 122.07 550.932 122.367 552.064 122.613L556.732 123.698C558.998 124.19 561.079 124.853 562.976 125.685C564.872 126.518 566.517 127.545 567.909 128.769C569.302 129.993 570.383 131.438 571.153 133.105C571.941 134.772 572.349 136.686 572.38 138.847C572.383 142.022 571.59 144.78 570.001 147.12C568.428 149.443 566.143 151.256 563.146 152.558C560.165 153.844 556.564 154.5 552.343 154.527C548.155 154.553 544.504 153.934 541.389 152.671C538.291 151.407 535.864 149.522 534.108 147.017C532.37 144.495 531.447 141.369 531.339 137.638L541.951 137.571C542.08 139.309 542.588 140.758 543.474 141.918C544.376 143.06 545.572 143.923 547.062 144.505C548.568 145.069 550.266 145.345 552.157 145.333C554.015 145.321 555.626 145.041 556.99 144.492C558.371 143.943 559.439 143.185 560.192 142.217C560.946 141.25 561.319 140.142 561.312 138.892C561.304 137.727 560.951 136.75 560.254 135.961C559.574 135.171 558.573 134.503 557.253 133.954C555.949 133.405 554.35 132.908 552.456 132.464L546.799 131.082C542.419 130.046 538.955 128.404 536.408 126.157C533.861 123.91 532.584 120.871 532.576 117.038C532.539 113.897 533.359 111.147 535.032 108.79C536.723 106.432 539.049 104.585 542.013 103.25C544.976 101.914 548.349 101.234 552.132 101.21ZM528.054 153.946L516.302 154.02L512.386 142.215L493.657 142.334L489.885 154.187L478.132 154.261L495.711 102.275L509.845 102.186L528.054 153.946ZM620.206 110.531L604.325 110.632L604.597 153.462L593.756 153.53L593.485 110.7L577.604 110.8L577.547 101.758L620.149 101.489L620.206 110.531ZM662.176 110.265L638.189 110.418L638.268 122.777L660.455 122.637L660.513 131.679L638.325 131.82L638.403 144.206L662.49 144.053L662.548 153.095L627.493 153.317L627.165 101.444L662.118 101.223L662.176 110.265ZM691.303 101.039C695.22 101.014 698.569 101.694 701.347 103.078C704.141 104.445 706.273 106.399 707.741 108.939C709.226 111.463 709.979 114.438 710.001 117.866C710.023 121.311 709.298 124.279 707.828 126.77C706.358 129.245 704.217 131.15 701.405 132.485C701.251 132.559 701.094 132.628 700.937 132.698L712.071 152.782L699.964 152.859L690.021 134.532L682.016 134.583L682.133 152.971L671.166 153.041L670.838 101.169L691.303 101.039ZM259.777 112.759C257.126 112.776 254.817 113.441 252.85 114.754C250.882 116.066 249.358 117.984 248.276 120.507C247.212 123.029 246.691 126.123 246.714 129.787C246.737 133.451 247.297 136.538 248.394 139.048C249.507 141.556 251.056 143.454 253.039 144.742C255.023 146.03 257.341 146.665 259.992 146.648C262.643 146.631 264.952 145.967 266.919 144.654C268.886 143.341 270.403 141.424 271.468 138.901C272.549 136.378 273.079 133.285 273.056 129.621C273.033 125.957 272.464 122.87 271.351 120.361C270.254 117.852 268.713 115.953 266.729 114.666C264.746 113.378 262.428 112.743 259.777 112.759ZM502.65 114.086L496.389 133.756L509.553 133.672L503.056 114.084L502.65 114.086ZM11.7998 114.301L11.9092 131.601L19.3564 131.554C21.4667 131.541 23.2034 131.167 24.5664 130.432C25.9463 129.681 26.9705 128.652 27.6377 127.347C28.3216 126.026 28.6582 124.513 28.6475 122.807C28.6366 121.085 28.2805 119.584 27.5801 118.305C26.8965 117.01 25.8605 116.012 24.4717 115.311C23.0825 114.594 21.3238 114.242 19.1963 114.256L11.7998 114.301ZM201.187 113.104L201.296 130.403L208.742 130.356C210.853 130.343 212.59 129.969 213.953 129.234C215.333 128.482 216.356 127.454 217.023 126.15C217.707 124.829 218.044 123.315 218.033 121.61C218.022 119.888 217.667 118.387 216.967 117.108C216.283 115.812 215.246 114.814 213.857 114.114C212.468 113.397 210.71 113.044 208.582 113.057L201.187 113.104ZM681.861 110.065L681.96 125.768L689.407 125.721C691.501 125.708 693.238 125.411 694.619 124.828C696 124.245 697.025 123.377 697.693 122.224C698.378 121.072 698.715 119.643 698.704 117.937C698.693 116.215 698.338 114.765 697.639 113.588C696.956 112.41 695.911 111.522 694.506 110.923C693.117 110.307 691.367 110.005 689.257 110.018L681.861 110.065ZM20.4658 42.6423C24.3996 42.6175 27.7557 43.3477 30.5342 44.8327C33.3127 46.3011 35.4373 48.357 36.9062 50.9987C38.3918 53.6234 39.1452 56.6588 39.167 60.1032C39.1887 63.5476 38.4652 66.5916 36.9961 69.235C35.5268 71.8785 33.3867 73.9445 30.5762 75.4313C27.7826 76.9179 24.3929 77.6737 20.4082 77.6989L11.1885 77.7565L11.2627 89.5856L0.296875 89.655L0 42.7721L20.4658 42.6423ZM57.4434 89.2936L46.4766 89.363L46.1797 42.4801L57.1465 42.4108L57.4434 89.2936ZM109.854 88.9626L96.9336 89.0436L77.6387 61.5065L77.2588 61.5085L77.4336 89.1676L66.4658 89.237L66.1699 42.3542L75.7949 42.2926L98.3906 74.7741L98.8467 74.7712L98.6406 42.1481L109.558 42.0798L109.854 88.9626ZM141.968 41.1647C144.906 41.1462 147.644 41.5599 150.182 42.4049C152.72 43.2332 154.973 44.4177 156.941 45.9587C158.927 47.4995 160.551 49.338 161.814 51.4743C163.077 53.594 163.894 55.9373 164.265 58.5016L153.121 58.5719C152.759 57.3416 152.253 56.2556 151.605 55.3141C150.958 54.3559 150.168 53.5497 149.235 52.8971C148.319 52.2275 147.268 51.7189 146.084 51.3717C144.917 51.0246 143.623 50.855 142.205 50.8639C139.554 50.8808 137.228 51.5549 135.228 52.8844C133.244 54.2141 131.702 56.1409 130.604 58.6637C129.505 61.1697 128.966 64.2292 128.989 67.8425C129.012 71.4559 129.581 74.5265 130.694 77.0524C131.808 79.578 133.374 81.5018 135.392 82.8229C137.409 84.1271 139.786 84.7709 142.521 84.7536C145.003 84.7379 147.12 84.2852 148.87 83.3962C150.637 82.49 151.981 81.2232 152.899 79.5964C153.788 78.0508 154.247 76.2411 154.279 74.1676L143.139 74.238L143.086 65.9801L164.793 65.8425L164.834 72.3776C164.863 76.9367 163.925 80.8611 162.021 84.1491C161.029 85.8516 159.838 87.3525 158.451 88.655L126.252 88.8591C124.155 87.033 122.411 84.8071 121.025 82.1784C118.957 78.2065 117.906 73.4849 117.871 68.0143C117.845 63.8101 118.429 60.0577 119.624 56.7575C120.836 53.4401 122.541 50.6255 124.738 48.3151C126.936 46.005 129.5 44.2414 132.43 43.0241C135.36 41.8067 138.54 41.1864 141.968 41.1647ZM209.852 41.445C213.786 41.4201 217.142 42.1502 219.921 43.6354C222.699 45.1038 224.823 47.1597 226.292 49.8014C227.778 52.4262 228.532 55.4614 228.554 58.9059C228.575 62.3503 227.851 65.3944 226.382 68.0378C224.913 70.6811 222.772 72.7463 219.962 74.2331C217.168 75.7196 213.78 76.4754 209.795 76.5007L200.575 76.5592L200.65 88.3884L189.683 88.4577L189.386 41.5749L209.852 41.445ZM258.939 40.4245C263.515 40.3956 267.642 41.4175 271.319 43.488C275.013 45.5416 277.937 48.5461 280.09 52.5007C282.259 56.4552 283.362 61.2611 283.397 66.9176C283.433 72.574 282.392 77.3932 280.272 81.3747C278.916 83.9443 277.231 86.1237 275.222 87.9167L243.254 88.1188C241.217 86.3465 239.498 84.1806 238.102 81.6159C235.949 77.6613 234.854 72.864 234.818 67.2243C234.783 61.5677 235.816 56.7488 237.919 52.7673C240.021 48.7858 242.898 45.7452 246.549 43.6452C250.2 41.5282 254.33 40.4537 258.939 40.4245ZM335.042 87.5387L322.121 87.6198L302.826 60.0827L302.446 60.0846L302.622 87.7438L291.654 87.8132L291.357 40.9303L300.982 40.8688L323.579 73.3503L324.035 73.3473L323.829 40.7243L334.745 40.6559L335.042 87.5387ZM525.526 86.3337L513.874 86.4079L511.61 79.5827L492.881 79.7018L490.7 86.5544L479.047 86.6276L494.935 39.6423L509.068 39.5534L525.526 86.3337ZM551.355 38.5758C555.205 38.5516 558.57 39.1901 561.448 40.4889C564.344 41.7877 566.602 43.6052 568.221 45.9421C569.839 48.2788 570.684 50.9923 570.754 54.0817L560.243 54.1481C560.028 52.1066 559.148 50.5245 557.604 49.403C556.061 48.2816 553.972 47.7292 551.338 47.7458C549.548 47.7571 548.038 48.0205 546.809 48.5348C545.579 49.0323 544.637 49.722 543.984 50.6042C543.349 51.4861 543.034 52.4841 543.041 53.5983C543.013 54.5271 543.212 55.3365 543.639 56.026C544.082 56.7156 544.686 57.3114 545.449 57.8132C546.212 58.2979 547.092 58.7234 548.091 59.0885C549.089 59.4368 550.155 59.734 551.288 59.9801L555.955 61.0651C558.221 61.5574 560.303 62.2191 562.199 63.0514C564.096 63.8837 565.74 64.9125 567.133 66.1364C568.525 67.3602 569.607 68.8057 570.377 70.4723C571.164 72.139 571.573 74.0534 571.604 76.2145C571.607 79.3889 570.814 82.1467 569.225 84.487C568.848 85.0427 568.429 85.5678 567.972 86.0651L534.901 86.2751C534.33 85.6897 533.806 85.0602 533.332 84.3844C531.594 81.8626 530.671 78.7355 530.562 75.0046L541.176 74.9382C541.305 76.6764 541.812 78.1254 542.697 79.2848C543.599 80.4272 544.796 81.2892 546.285 81.8708C547.791 82.4352 549.49 82.7118 551.381 82.6999C553.238 82.6881 554.85 82.408 556.214 81.8591C557.595 81.31 558.662 80.5518 559.416 79.5846C560.17 78.6174 560.542 77.508 560.534 76.2585C560.527 75.0938 560.175 74.1168 559.478 73.3278C558.797 72.5386 557.796 71.8698 556.476 71.321C555.172 70.772 553.573 70.2746 551.68 69.8307L546.022 68.4479C541.643 67.4118 538.178 65.7697 535.631 63.5231C533.084 61.2765 531.807 58.2367 531.8 54.404C531.763 51.2636 532.581 48.5145 534.255 46.1569C535.945 43.7991 538.273 41.9527 541.236 40.6169C544.2 39.281 547.573 38.5998 551.355 38.5758ZM619.43 47.8981L603.549 47.9977L603.788 85.8395L592.948 85.9079L592.709 48.0671L576.828 48.1667L576.771 39.1257L619.372 38.8561L619.43 47.8981ZM661.398 47.6325L637.413 47.7839L637.491 60.1442L659.679 60.0036L659.736 69.0466L637.548 69.1872L637.626 81.5719L661.714 81.4196L661.739 85.4723L626.686 85.694L626.389 38.8112L661.342 38.5905L661.398 47.6325ZM690.526 38.4059C694.444 38.3812 697.791 39.0602 700.569 40.444C703.364 41.811 705.497 43.7658 706.965 46.3063C708.45 48.8296 709.203 51.8049 709.225 55.2321C709.246 58.6767 708.522 61.6458 707.052 64.1374C705.581 66.6118 703.44 68.5164 700.629 69.8512C700.475 69.9247 700.319 69.9956 700.161 70.0651L708.538 85.1764L696.49 85.2526L689.246 71.8991L681.24 71.9499L681.325 85.3493L670.357 85.4186L670.061 38.5358L690.526 38.4059ZM259.001 50.1257C256.35 50.1424 254.041 50.8072 252.073 52.1198C250.106 53.4324 248.582 55.3509 247.5 57.8737C246.435 60.3964 245.914 63.4899 245.938 67.154C245.961 70.8179 246.521 73.9047 247.617 76.4137C248.731 78.9224 250.279 80.8204 252.263 82.1081C254.247 83.3958 256.565 84.033 259.216 84.0163C261.867 83.9994 264.176 83.3337 266.144 82.0212C268.111 80.7085 269.627 78.7907 270.691 76.2682C271.773 73.7455 272.302 70.6518 272.279 66.988C272.256 63.3238 271.688 60.2362 270.574 57.7272C269.478 55.2184 267.938 53.3195 265.954 52.0319C263.97 50.7442 261.652 50.1089 259.001 50.1257ZM501.874 51.4528L495.612 71.1227L508.777 71.0387L502.279 51.4499L501.874 51.4528ZM11.0234 51.6686L11.1328 68.9675L18.5801 68.9206C20.6905 68.9072 22.428 68.5332 23.791 67.7985C25.1705 67.0469 26.1942 66.0186 26.8613 64.7145C27.5451 63.3932 27.8809 61.8796 27.8701 60.1745C27.8592 58.4522 27.5041 56.9514 26.8037 55.6725C26.1202 54.3768 25.084 53.3788 23.6953 52.6784C22.3062 51.9611 20.5473 51.6083 18.4199 51.6217L11.0234 51.6686ZM200.41 50.4714L200.52 67.7702L207.966 67.7233C210.076 67.71 211.814 67.3359 213.177 66.6012C214.557 65.8495 215.58 64.8207 216.247 63.5163C216.931 62.1951 217.269 60.6822 217.258 58.9772C217.247 57.2549 216.89 55.7532 216.189 54.4743C215.506 53.1788 214.47 52.1814 213.081 51.4811C211.692 50.7638 209.933 50.411 207.806 50.4245L200.41 50.4714ZM681.085 47.4313L681.185 63.1354L688.631 63.0885C690.725 63.0753 692.462 62.7768 693.843 62.194C695.224 61.6112 696.248 60.7437 696.916 59.5915C697.601 58.4389 697.94 57.0088 697.929 55.3034C697.918 53.5814 697.561 52.1312 696.861 50.9538C696.178 49.7764 695.135 48.8876 693.729 48.2887C692.341 47.6728 690.591 47.3711 688.48 47.3844L681.085 47.4313ZM209.608 3.03972C213.543 3.01484 216.9 3.7449 219.679 5.23015C222.457 6.69855 224.581 8.75444 226.05 11.3962C227.535 14.0208 228.29 17.0553 228.312 20.4997C228.324 22.4766 228.089 24.3218 227.61 26.0348L215.383 26.112C215.616 25.799 215.823 25.4656 216.004 25.112C216.688 23.7905 217.025 22.2764 217.015 20.571C217.004 18.8488 216.648 17.3478 215.947 16.069C215.264 14.7734 214.227 13.7752 212.838 13.0749C211.449 12.3577 209.69 12.0058 207.562 12.0192L200.167 12.0661L200.257 26.2077L189.289 26.277L189.144 3.16862L209.608 3.03972ZM258.697 2.02018C263.273 1.99131 267.4 3.01213 271.077 5.08268C274.771 7.13619 277.694 10.1402 279.847 14.0944C281.645 17.3726 282.709 21.2364 283.041 25.6842L271.899 25.7546C271.668 23.3016 271.145 21.157 270.331 19.3219C269.235 16.8133 267.694 14.9152 265.711 13.6276C263.727 12.3399 261.409 11.7046 258.758 11.7214C256.107 11.7382 253.797 12.4029 251.83 13.7155C249.863 15.0281 248.338 16.946 247.257 19.4684C246.478 21.3134 245.993 23.4642 245.796 25.9196L234.654 25.9899C234.928 21.5384 235.933 17.6615 237.676 14.361C239.778 10.3798 242.655 7.33891 246.306 5.23893C249.957 3.12196 254.088 2.04933 258.697 2.02018ZM316.747 25.4714L305.294 25.5436L302.584 21.6764L302.204 21.6794L302.229 25.5632L291.262 25.6325L291.116 2.52409L300.74 2.46354L316.747 25.4714ZM334.648 25.3581L323.732 25.4264L323.586 2.31901L334.503 2.24968L334.648 25.3581ZM366.912 1.33561C369.85 1.31706 372.589 1.73074 375.127 2.57585C377.665 3.4041 379.918 4.58953 381.887 6.13054C383.872 7.67146 385.497 9.50972 386.76 11.6462C388.023 13.7656 388.839 16.1075 389.21 18.6716L378.065 18.7428C377.703 17.5125 377.198 16.4255 376.551 15.4841C375.903 14.526 375.113 13.7205 374.181 13.068C373.265 12.3985 372.214 11.8898 371.03 11.5426C369.863 11.1954 368.569 11.0268 367.15 11.0358C364.5 11.0527 362.174 11.7257 360.173 13.0553C358.189 14.385 356.646 16.3108 355.548 18.8337C354.743 20.6699 354.242 22.8043 354.039 25.235L342.9 25.3053C343.099 22.2479 343.654 19.4547 344.569 16.9274C345.781 13.6104 347.485 10.7963 349.683 8.486C351.88 6.17572 354.445 4.41143 357.375 3.19401C360.305 1.97674 363.485 1.35733 366.912 1.33561ZM437.475 24.7077L427.592 24.7702L425.514 19.6579L425.083 19.6608L425.115 24.7858L414.478 24.8532L414.331 1.74479L427.857 1.65983L437.475 24.7077ZM470.707 24.4977L460.068 24.5651L460.036 19.5671L459.606 19.57L457.637 24.5798L447.71 24.6432L457.035 1.47526L470.561 1.38932L470.707 24.4977ZM516.938 24.2057L505.762 24.276L502.036 13.0446L501.631 13.0466L498.041 24.3249L486.861 24.3952L494.691 1.23698L508.825 1.14811L516.938 24.2057ZM551.113 0.171552C554.963 0.147288 558.327 0.784054 561.205 2.08268C564.101 3.3815 566.36 5.19984 567.979 7.53679C569.597 9.87353 570.44 12.5871 570.511 15.6764L560.001 15.7438C559.785 13.7021 558.905 12.1203 557.361 10.9987C555.818 9.8771 553.729 9.32386 551.095 9.3405C549.305 9.35182 547.795 9.61425 546.565 10.1286C545.336 10.6261 544.394 11.3167 543.741 12.1989C543.105 13.0808 542.792 14.079 542.799 15.193C542.771 16.1216 542.969 16.9313 543.396 17.6208C543.839 18.3102 544.443 18.9062 545.206 19.4079C545.969 19.8926 546.849 20.3182 547.848 20.6833C548.846 21.0315 549.912 21.3288 551.045 21.5749L555.713 22.6598C557.284 23.0012 558.766 23.4274 560.16 23.9323L534.366 24.0954C532.501 21.9772 531.564 19.2792 531.558 15.9997C531.521 12.8593 532.338 10.1093 534.012 7.75163C535.702 5.39375 538.031 3.54648 540.994 2.21061C543.958 0.874865 547.331 0.195466 551.113 0.171552ZM619.187 9.49186L603.307 9.59245L603.396 23.6589L592.555 23.7272L592.466 9.66081L576.585 9.7614L576.528 0.719403L619.13 0.449872L619.187 9.49186ZM661.156 9.22624L637.17 9.37858L637.248 21.7399L659.437 21.5993L659.447 23.3044L626.292 23.5133L626.146 0.405927L661.099 0.185223L661.156 9.22624ZM690.283 0.000653088C694.201 -0.0241169 697.549 0.655724 700.327 2.03972C703.122 3.40664 705.253 5.35981 706.722 7.90007C708.207 10.4236 708.961 13.4 708.982 16.8278C708.997 19.0898 708.687 21.1457 708.058 22.9967L694.906 23.0798C695.647 22.5699 696.237 21.9394 696.674 21.1862C697.359 20.0337 697.696 18.6044 697.686 16.8991C697.675 15.1769 697.319 13.727 696.619 12.5495C695.936 11.3718 694.892 10.4825 693.486 9.88347C692.098 9.26772 690.348 8.96685 688.238 8.98015L680.843 9.02702L680.932 23.1686L669.964 23.238L669.818 0.129559L690.283 0.000653088Z" fill="#F9F6FC"/>
</svg>
